<svg viewBox="0 0 137 25" version="1.1" xmlns="http://www.w3.org/2000/svg" xmlns:xlink="http://www.w3.org/1999/xlink" id="el_V5_VQTwk4"><style>@-webkit-keyframes kf_el_gQJZWSKcov_an_GjhtDQkkc{0%{-webkit-transform: translate(131.58872985839844px, 22.00000000000003px) scale(1, 1) translate(-131.58872985839844px, -22.00000000000003px);transform: translate(131.58872985839844px, 22.00000000000003px) scale(1, 1) translate(-131.58872985839844px, -22.00000000000003px);}16.67%{-webkit-transform: translate(131.58872985839844px, 22.00000000000003px) scale(1, 0.6) translate(-131.58872985839844px, -22.00000000000003px);transform: translate(131.58872985839844px, 22.00000000000003px) scale(1, 0.6) translate(-131.58872985839844px, -22.00000000000003px);}27.78%{-webkit-transform: translate(131.58872985839844px, 22.00000000000003px) scale(1, 0.6) translate(-131.58872985839844px, -22.00000000000003px);transform: translate(131.58872985839844px, 22.00000000000003px) scale(1, 0.6) translate(-131.58872985839844px, -22.00000000000003px);}38.89%{-webkit-transform: translate(131.58872985839844px, 22.00000000000003px) scale(1, 1) translate(-131.58872985839844px, -22.00000000000003px);transform: translate(131.58872985839844px, 22.00000000000003px) scale(1, 1) translate(-131.58872985839844px, -22.00000000000003px);}100%{-webkit-transform: translate(131.58872985839844px, 22.00000000000003px) scale(1, 1) translate(-131.58872985839844px, -22.00000000000003px);transform: translate(131.58872985839844px, 22.00000000000003px) scale(1, 1) translate(-131.58872985839844px, -22.00000000000003px);}}@keyframes kf_el_gQJZWSKcov_an_GjhtDQkkc{0%{-webkit-transform: translate(131.58872985839844px, 22.00000000000003px) scale(1, 1) translate(-131.58872985839844px, -22.00000000000003px);transform: translate(131.58872985839844px, 22.00000000000003px) scale(1, 1) translate(-131.58872985839844px, -22.00000000000003px);}16.67%{-webkit-transform: translate(131.58872985839844px, 22.00000000000003px) scale(1, 0.6) translate(-131.58872985839844px, -22.00000000000003px);transform: translate(131.58872985839844px, 22.00000000000003px) scale(1, 0.6) translate(-131.58872985839844px, -22.00000000000003px);}27.78%{-webkit-transform: translate(131.58872985839844px, 22.00000000000003px) scale(1, 0.6) translate(-131.58872985839844px, -22.00000000000003px);transform: translate(131.58872985839844px, 22.00000000000003px) scale(1, 0.6) translate(-131.58872985839844px, -22.00000000000003px);}38.89%{-webkit-transform: translate(131.58872985839844px, 22.00000000000003px) scale(1, 1) translate(-131.58872985839844px, -22.00000000000003px);transform: translate(131.58872985839844px, 22.00000000000003px) scale(1, 1) translate(-131.58872985839844px, -22.00000000000003px);}100%{-webkit-transform: translate(131.58872985839844px, 22.00000000000003px) scale(1, 1) translate(-131.58872985839844px, -22.00000000000003px);transform: translate(131.58872985839844px, 22.00000000000003px) scale(1, 1) translate(-131.58872985839844px, -22.00000000000003px);}}@-webkit-keyframes kf_el_HpKn7H6iRR_an_Re9fl_m3W{0%{-webkit-transform: translate(121.38233947753906px, 22px) scale(1, 0.8) translate(-121.38233947753906px, -22px);transform: translate(121.38233947753906px, 22px) scale(1, 0.8) translate(-121.38233947753906px, -22px);}16.67%{-webkit-transform: translate(121.38233947753906px, 22px) scale(1, 1.5) translate(-121.38233947753906px, -22px);transform: translate(121.38233947753906px, 22px) scale(1, 1.5) translate(-121.38233947753906px, -22px);}27.78%{-webkit-transform: translate(121.38233947753906px, 22px) scale(1, 1.5) translate(-121.38233947753906px, -22px);transform: translate(121.38233947753906px, 22px) scale(1, 1.5) translate(-121.38233947753906px, -22px);}38.89%{-webkit-transform: translate(121.38233947753906px, 22px) scale(1, 0.8) translate(-121.38233947753906px, -22px);transform: translate(121.38233947753906px, 22px) scale(1, 0.8) translate(-121.38233947753906px, -22px);}100%{-webkit-transform: translate(121.38233947753906px, 22px) scale(1, 0.8) translate(-121.38233947753906px, -22px);transform: translate(121.38233947753906px, 22px) scale(1, 0.8) translate(-121.38233947753906px, -22px);}}@keyframes kf_el_HpKn7H6iRR_an_Re9fl_m3W{0%{-webkit-transform: translate(121.38233947753906px, 22px) scale(1, 0.8) translate(-121.38233947753906px, -22px);transform: translate(121.38233947753906px, 22px) scale(1, 0.8) translate(-121.38233947753906px, -22px);}16.67%{-webkit-transform: translate(121.38233947753906px, 22px) scale(1, 1.5) translate(-121.38233947753906px, -22px);transform: translate(121.38233947753906px, 22px) scale(1, 1.5) translate(-121.38233947753906px, -22px);}27.78%{-webkit-transform: translate(121.38233947753906px, 22px) scale(1, 1.5) translate(-121.38233947753906px, -22px);transform: translate(121.38233947753906px, 22px) scale(1, 1.5) translate(-121.38233947753906px, -22px);}38.89%{-webkit-transform: translate(121.38233947753906px, 22px) scale(1, 0.8) translate(-121.38233947753906px, -22px);transform: translate(121.38233947753906px, 22px) scale(1, 0.8) translate(-121.38233947753906px, -22px);}100%{-webkit-transform: translate(121.38233947753906px, 22px) scale(1, 0.8) translate(-121.38233947753906px, -22px);transform: translate(121.38233947753906px, 22px) scale(1, 0.8) translate(-121.38233947753906px, -22px);}}#el_V5_VQTwk4 *{-webkit-animation-duration: 3s;animation-duration: 3s;-webkit-animation-iteration-count: 1;animation-iteration-count: 1;-webkit-animation-timing-function: cubic-bezier(0, 0, 1, 1);animation-timing-function: cubic-bezier(0, 0, 1, 1);}#el_Z6UNq5xvQs{stroke: none;stroke-width: 1;fill: none;}#el_40vflNiEEX{fill: currentColor;}#el_HpKn7H6iRR_an_Re9fl_m3W{-webkit-transform: translate(121.38233947753906px, 22px) scale(1, 0.8) translate(-121.38233947753906px, -22px);transform: translate(121.38233947753906px, 22px) scale(1, 0.8) translate(-121.38233947753906px, -22px);-webkit-animation-fill-mode: backwards;animation-fill-mode: backwards;-webkit-animation-name: kf_el_HpKn7H6iRR_an_Re9fl_m3W;animation-name: kf_el_HpKn7H6iRR_an_Re9fl_m3W;-webkit-animation-timing-function: cubic-bezier(0.42, 0, 0.58, 1);animation-timing-function: cubic-bezier(0.42, 0, 0.58, 1);}#el_gQJZWSKcov_an_GjhtDQkkc{-webkit-animation-fill-mode: backwards;animation-fill-mode: backwards;-webkit-transform: translate(131.58872985839844px, 22.00000000000003px) scale(1, 1) translate(-131.58872985839844px, -22.00000000000003px);transform: translate(131.58872985839844px, 22.00000000000003px) scale(1, 1) translate(-131.58872985839844px, -22.00000000000003px);-webkit-animation-name: kf_el_gQJZWSKcov_an_GjhtDQkkc;animation-name: kf_el_gQJZWSKcov_an_GjhtDQkkc;-webkit-animation-timing-function: cubic-bezier(0.42, 0, 0.58, 1);animation-timing-function: cubic-bezier(0.42, 0, 0.58, 1);}</style>
    <title>Group 21</title>
    <desc>Created with Sketch.</desc>
    <g id="el_Z6UNq5xvQs" fill-rule="evenodd">
        <g id="el_40vflNiEEX" fill-rule="nonzero">
            <polygon id="el_DT3O8iL_QB" points="6.94213732 22.2236534 -1.26121336e-13 1.23419204 5.6184247 1.23419204 9.70722591 14.6124122 13.6783638 1.23419204 19.2673726 1.23419204 12.4134828 22.2236534"/>
            <path d="M27.0037375,4.89344262 C28.7392719,4.89344262 30.2100637,5.21545667 31.5043605,5.88875878 C34.092954,7.235363 35.5931617,9.81147541 35.5931617,13.617096 L35.5931617,14.1440281 C35.5931617,16.0175644 35.2401717,17.5983607 34.5341916,18.8571429 C33.0633998,21.4039813 30.4748062,22.6627635 26.9743217,22.6627635 C21.4147287,22.6627635 18.3848976,19.823185 18.3848976,14.1440281 L18.3848976,13.617096 C18.3848976,11.6850117 18.7673034,10.0749415 19.5026993,8.78688525 C20.9734911,6.21077283 23.6503322,4.89344262 27.0037375,4.89344262 Z M27.0331534,9.40163934 C25.0328765,9.40163934 23.7091639,10.7482436 23.7091639,13.617096 L23.7091639,14.0854801 C23.7091639,16.7201405 25.0328765,18.0667447 27.0037375,18.0667447 C28.9745986,18.0667447 30.2688953,16.7494145 30.2688953,14.0854801 L30.2688953,13.617096 C30.2688953,10.8360656 29.1216777,9.40163934 27.0331534,9.40163934 Z" id="el_Svg79TvmXJ"/>
            <path d="M48.6537929,22.2236534 L45.947536,22.2236534 C44.2120017,22.2236534 42.9177049,21.9894614 41.9763981,21.5503513 C40.1232004,20.6135831 39.5348837,18.6229508 39.5348837,15.0807963 L39.5348837,9.95784543 L36.6521318,9.95784543 L36.6521318,5.53747073 C37.328696,5.53747073 37.7405177,5.47892272 38.3288344,5.3618267 C39.4466362,5.21545667 39.8584579,4.7763466 40.0055371,3.31264637 C40.0937846,2.61007026 40.1526163,1.70257611 40.1820321,1 L44.5944075,1 L44.5944075,5.24473068 L48.6537929,5.24473068 L48.6537929,9.95784543 L44.5944075,9.95784543 L44.5944075,14.0269321 C44.5944075,14.9929742 44.682655,15.7248244 44.8003184,16.1932084 C45.1238926,17.1007026 45.8592885,17.2763466 47.565407,17.2763466 L48.6537929,17.2763466 L48.6537929,22.2236534 Z" id="el_orUOeR10SS"/>
            <path d="M59.0081672,4.89344262 C61.0084441,4.89344262 62.6557309,5.27400468 63.9206118,6.06440281 C66.4503738,7.64519906 67.5975914,10.2798595 67.5975914,13.382904 L67.5975914,15.2857143 L55.5665144,15.2857143 C55.8312569,17.3934426 56.9784745,18.4473068 59.0669989,18.4473068 C60.5672065,18.4473068 61.4202658,17.8032787 61.8026717,16.8372365 L67.479928,16.8372365 C66.5386213,20.4086651 63.9206118,22.6627635 58.9199197,22.6627635 C52.9779208,22.6627635 50.2422481,19.4133489 50.2422481,14.1440281 L50.2422481,13.64637 C50.2422481,11.8021077 50.5952381,10.2505855 51.330634,8.96252927 C52.8014258,6.32786885 55.4488511,4.89344262 59.0081672,4.89344262 Z M59.0669989,8.93325527 C57.0961379,8.93325527 55.9195044,9.89929742 55.5665144,11.9484778 L62.3027409,11.9484778 C62.0674142,10.0163934 61.0672757,8.93325527 59.0669989,8.93325527 Z" id="el_ftIydFYlmD"/>
            <polygon id="el_drX8GqIJYi" points="6.94213732 22.2236534 -1.26121336e-13 1.23419204 5.6184247 1.23419204 9.70722591 14.6124122 13.6783638 1.23419204 19.2673726 1.23419204 12.4134828 22.2236534"/>
            <path d="M27.0037375,4.89344262 C28.7392719,4.89344262 30.2100637,5.21545667 31.5043605,5.88875878 C34.092954,7.235363 35.5931617,9.81147541 35.5931617,13.617096 L35.5931617,14.1440281 C35.5931617,16.0175644 35.2401717,17.5983607 34.5341916,18.8571429 C33.0633998,21.4039813 30.4748062,22.6627635 26.9743217,22.6627635 C21.4147287,22.6627635 18.3848976,19.823185 18.3848976,14.1440281 L18.3848976,13.617096 C18.3848976,11.6850117 18.7673034,10.0749415 19.5026993,8.78688525 C20.9734911,6.21077283 23.6503322,4.89344262 27.0037375,4.89344262 Z M27.0331534,9.40163934 C25.0328765,9.40163934 23.7091639,10.7482436 23.7091639,13.617096 L23.7091639,14.0854801 C23.7091639,16.7201405 25.0328765,18.0667447 27.0037375,18.0667447 C28.9745986,18.0667447 30.2688953,16.7494145 30.2688953,14.0854801 L30.2688953,13.617096 C30.2688953,10.8360656 29.1216777,9.40163934 27.0331534,9.40163934 Z" id="el_fWmsjpx-ch"/>
            <path d="M48.6537929,22.2236534 L45.947536,22.2236534 C44.2120017,22.2236534 42.9177049,21.9894614 41.9763981,21.5503513 C40.1232004,20.6135831 39.5348837,18.6229508 39.5348837,15.0807963 L39.5348837,9.95784543 L36.6521318,9.95784543 L36.6521318,5.53747073 C37.328696,5.53747073 37.7405177,5.47892272 38.3288344,5.3618267 C39.4466362,5.21545667 39.8584579,4.7763466 40.0055371,3.31264637 C40.0937846,2.61007026 40.1526163,1.70257611 40.1820321,1 L44.5944075,1 L44.5944075,5.24473068 L48.6537929,5.24473068 L48.6537929,9.95784543 L44.5944075,9.95784543 L44.5944075,14.0269321 C44.5944075,14.9929742 44.682655,15.7248244 44.8003184,16.1932084 C45.1238926,17.1007026 45.8592885,17.2763466 47.565407,17.2763466 L48.6537929,17.2763466 L48.6537929,22.2236534 Z" id="el_Y3AdAP03oy"/>
            <path d="M59.0081672,4.89344262 C61.0084441,4.89344262 62.6557309,5.27400468 63.9206118,6.06440281 C66.4503738,7.64519906 67.5975914,10.2798595 67.5975914,13.382904 L67.5975914,15.2857143 L55.5665144,15.2857143 C55.8312569,17.3934426 56.9784745,18.4473068 59.0669989,18.4473068 C60.5672065,18.4473068 61.4202658,17.8032787 61.8026717,16.8372365 L67.479928,16.8372365 C66.5386213,20.4086651 63.9206118,22.6627635 58.9199197,22.6627635 C52.9779208,22.6627635 50.2422481,19.4133489 50.2422481,14.1440281 L50.2422481,13.64637 C50.2422481,11.8021077 50.5952381,10.2505855 51.330634,8.96252927 C52.8014258,6.32786885 55.4488511,4.89344262 59.0081672,4.89344262 Z M59.0669989,8.93325527 C57.0961379,8.93325527 55.9195044,9.89929742 55.5665144,11.9484778 L62.3027409,11.9484778 C62.0674142,10.0163934 61.0672757,8.93325527 59.0669989,8.93325527 Z" id="el_G3kMclf9xo"/>
            <polygon id="el_3Aj-QG4lAE" points="82.8842746 10.3044496 78.8248893 22.3946136 73.8830288 22.3946136 68.8823367 1.40515222 74.206603 1.40515222 76.9716916 14.1686183 80.9722453 1.40515222 85.149294 1.40515222 88.914521 14.4906323 92.1796788 1.40515222 97.4451135 1.40515222 91.7090255 22.3946136 86.6495017 22.3946136"/>
            <g id="el_HpKn7H6iRR_an_Re9fl_m3W" data-animator-group="true" data-animator-type="2"><path d="M124.882337,5 L124.882337,22 L117.882337,22 L117.882337,5 L124.882337,5 Z" id="el_HpKn7H6iRR"/></g>
            <g id="el_gQJZWSKcov_an_GjhtDQkkc" data-animator-group="true" data-animator-type="2"><polygon id="el_gQJZWSKcov" points="127.882337 22 127.882337 2.84217094e-14 135.295127 2.84217094e-14 135.295127 22"/></g>
            <polygon id="el_Rsj4O_7WsE" points="116.632337 24.5837237 136.058832 24.5837237 136.058832 23.0837237 116.632337 23.0837237"/>
            <path d="M107.064092,5.06440281 C109.064369,5.06440281 110.711656,5.44496487 111.976537,6.235363 C114.506298,7.81615925 115.653516,10.4508197 115.653516,13.5538642 L115.653516,15.4566745 L103.622439,15.4566745 C103.887182,17.5644028 105.034399,18.618267 107.122924,18.618267 C108.623131,18.618267 109.47619,17.9742389 109.858596,17.0081967 L115.535853,17.0081967 C114.594546,20.5796253 111.976537,22.8337237 106.975844,22.8337237 C101.033846,22.8337237 98.2981728,19.5843091 98.2981728,14.3149883 L98.2981728,13.8173302 C98.2981728,11.9730679 98.6511628,10.4215457 99.3865587,9.13348946 C100.85735,6.49882904 103.504776,5.06440281 107.064092,5.06440281 Z M107.122924,9.10421546 C105.152063,9.10421546 103.975429,10.0702576 103.622439,12.1194379 L110.358666,12.1194379 C110.123339,10.1873536 109.1232,9.10421546 107.122924,9.10421546 Z" id="el_VT-1_ZKwwW"/>
        </g>
    </g>
</svg>
